<?xml version="1.0" encoding="utf-8"?>
<!-- Generator: Adobe Illustrator 23.0.0, SVG Export Plug-In . SVG Version: 6.00 Build 0)  -->
<svg version="1.1" id="Layer_1" xmlns="http://www.w3.org/2000/svg" xmlns:xlink="http://www.w3.org/1999/xlink" x="0px" y="0px"
	 viewBox="0 0 70 70" style="enable-background:new 0 0 70 70;" xml:space="preserve">
<style type="text/css">
	.st0{filter:url(#Adobe_OpacityMaskFilter);}
	.st1{fill-rule:evenodd;clip-rule:evenodd;fill:#FFFFFF;}
	.st2{mask:url(#b_1_);}
	.st3{fill-rule:evenodd;clip-rule:evenodd;fill:url(#SVGID_1_);}
	.st4{fill-rule:evenodd;clip-rule:evenodd;fill:#FFFFFF;fill-opacity:0.383;}
	.st5{fill-rule:evenodd;clip-rule:evenodd;fill-opacity:0.383;}
	.st6{fill:#1C1C1C;}
	.st7{fill:#353535;}
	.st8{fill:#FFFFFF;}
	.st9{fill:#FCCF34;}
	.st10{fill:#94B5C7;}
	.st11{fill:#CE4E2B;}
</style>
<defs>
	<filter id="Adobe_OpacityMaskFilter" filterUnits="userSpaceOnUse" x="0" y="0" width="70" height="70">
		<feColorMatrix  type="matrix" values="1 0 0 0 0  0 1 0 0 0  0 0 1 0 0  0 0 0 1 0"/>
	</filter>
</defs>
<mask maskUnits="userSpaceOnUse" x="0" y="0" width="70" height="70" id="b_1_">
	<g class="st0">
		<path id="a_1_" class="st1" d="M4,0h61c4,0,5,1,5,5v60c0,4-1,5-5,5H4c-3,0-4-1-4-5V5C0,1,1,0,4,0z"/>
	</g>
</mask>
<g class="st2">
	
		<linearGradient id="SVGID_1_" gradientUnits="userSpaceOnUse" x1="-378.5" y1="329.5331" x2="-379.5" y2="328.5331" gradientTransform="matrix(70 0 0 -70 26565 23067.3203)">
		<stop  offset="0" style="stop-color:#94B6C8"/>
		<stop  offset="1" style="stop-color:#6A9EBA"/>
	</linearGradient>
	<path class="st3" d="M0,0h70v70H0V0z"/>
	<path class="st4" d="M4,1h61c2.7,0,4.3,0.7,5,2V0H0v3C0.7,1.7,2,1,4,1z"/>
	<path class="st5" d="M4,69h61c2.7,0,4.3-1,5-3v4H0v-4C0.7,68,2,69,4,69z"/>
</g>
<path d="M25.1,38.3"/>
<path class="st6" d="M11.2,50.5v5.1H17v-5.1h1.6v12.1H17V57h-5.9v5.7H9.6V50.5H11.2z"/>
<path class="st6" d="M23.2,51.5c0,0.5-0.4,1-1,1c-0.6,0-1-0.4-1-1c0-0.6,0.4-1,1-1C22.9,50.5,23.2,51,23.2,51.5z M21.5,62.7V54H23
	v8.7H21.5z"/>
<path class="st6" d="M25.7,50.5h6.5v1.3h-5v4h4.6v1.3h-4.6v5.5h-1.6V50.5z"/>
<path class="st6" d="M35.1,58.9l-1.3,3.8h-1.6l4.1-12.1h1.9l4.1,12.1h-1.7l-1.3-3.8H35.1z M39,57.6l-1.2-3.5
	c-0.3-0.8-0.5-1.5-0.6-2.2h0c-0.2,0.7-0.4,1.5-0.6,2.2l-1.2,3.5H39z"/>
<path class="st6" d="M52.3,62.3c-0.6,0.3-1.7,0.6-3.2,0.6c-3.4,0-6-2.2-6-6.1c0-3.8,2.6-6.4,6.3-6.4c1.5,0,2.5,0.3,2.9,0.5L52,52.2
	c-0.6-0.3-1.4-0.5-2.4-0.5c-2.8,0-4.7,1.8-4.7,5c0,3,1.7,4.9,4.7,4.9c1,0,1.9-0.2,2.6-0.5L52.3,62.3z"/>
<path class="st6" d="M60.6,57h-4.7v4.4h5.3v1.3h-6.8V50.5h6.6v1.3h-5v3.8h4.7V57z"/>
<g>
	<g>
		<g>
			<path class="st7" d="M52.3,46.1H19.7c-1.3,0-2.3-1-2.3-2.3V13c0-1.3,1-2.3,2.3-2.3h32.6c1.3,0,2.3,1,2.3,2.3v30.8
				C54.6,45.1,53.5,46.1,52.3,46.1z"/>
			<path class="st7" d="M54.6,21.5V13c0-1.2-1-2.2-2.2-2.2H19.7c-1.2,0-2.2,1-2.2,2.2v8.5H54.6z"/>
		</g>
		<g>
			<g>
				<circle class="st7" cx="26.2" cy="16.1" r="2.5"/>
				<path class="st7" d="M25.3,7.3v8.9c0,0.5,0.4,1,1,1s1-0.4,1-1V7.3H25.3z"/>
			</g>
			<g>
				<circle class="st7" cx="45.8" cy="16.1" r="2.5"/>
				<path class="st7" d="M44.8,7.3v8.9c0,0.5,0.4,1,1,1s1-0.4,1-1V7.3H44.8z"/>
			</g>
		</g>
	</g>
	<polygon class="st7" points="33,36.5 28.1,31.7 26.7,33.1 33,39.3 45.3,27 43.9,25.6 	"/>
</g>
<g>
	<g>
		<g>
			<path class="st8" d="M51.3,45.1H18.7c-1.3,0-2.3-1-2.3-2.3V12c0-1.3,1-2.3,2.3-2.3h32.6c1.3,0,2.3,1,2.3,2.3v30.8
				C53.6,44.1,52.5,45.1,51.3,45.1z"/>
			<path class="st9" d="M53.6,20.5V12c0-1.2-1-2.2-2.2-2.2H18.7c-1.2,0-2.2,1-2.2,2.2v8.5H53.6z"/>
		</g>
		<g>
			<g>
				<circle class="st10" cx="25.2" cy="15.1" r="2.5"/>
				<path class="st8" d="M24.3,6.3v8.9c0,0.5,0.4,1,1,1s1-0.4,1-1V6.3H24.3z"/>
			</g>
			<g>
				<circle class="st10" cx="44.8" cy="15.1" r="2.5"/>
				<path class="st8" d="M43.8,6.3v8.9c0,0.5,0.4,1,1,1s1-0.4,1-1V6.3H43.8z"/>
			</g>
		</g>
	</g>
	<polygon class="st11" points="32,35.5 27.1,30.7 25.7,32.1 32,38.3 44.3,26 42.9,24.6 	"/>
</g>
</svg>
